<?xml version="1.0" encoding="UTF-8" standalone="no"?>
<!DOCTYPE svg PUBLIC "-//W3C//DTD SVG 1.1//EN"
 "http://www.w3.org/Graphics/SVG/1.1/DTD/svg11.dtd">
<!-- Generated by graphviz version 2.40.1 (20161225.0304)
 -->
<!-- Title: %3 Pages: 1 -->
<svg width="129pt" height="389pt"
 viewBox="0.00 0.00 129.00 389.00" xmlns="http://www.w3.org/2000/svg" xmlns:xlink="http://www.w3.org/1999/xlink">
<g id="graph0" class="graph" transform="scale(1 1) rotate(0) translate(4 384.9965)">
<title>%3</title>
<polygon fill="#ffffff" stroke="transparent" points="-4,4 -4,-384.9965 125,-384.9965 125,4 -4,4"/>
<!-- fake -->
<g id="node1" class="node">
<title>fake</title>
</g>
<!-- q0 -->
<g id="node2" class="node">
<title>q0</title>
<ellipse fill="none" stroke="#000000" cx="70" cy="-284.4983" rx="19.4968" ry="19.4968"/>
<ellipse fill="none" stroke="#000000" cx="70" cy="-284.4983" rx="23.4965" ry="23.4965"/>
<text text-anchor="middle" x="70" y="-280.7983" font-family="Times,serif" font-size="14.00" fill="#000000">q0</text>
</g>
<!-- fake&#45;&gt;q0 -->
<g id="edge1" class="edge">
<title>fake&#45;&gt;q0</title>
<path fill="none" stroke="#000000" stroke-width="2" d="M70,-344.7902C70,-336.8925 70,-327.3809 70,-318.2709"/>
<polygon fill="#000000" stroke="#000000" stroke-width="2" points="73.5001,-318.2633 70,-308.2634 66.5001,-318.2634 73.5001,-318.2633"/>
</g>
<!-- q2 -->
<g id="node4" class="node">
<title>q2</title>
<ellipse fill="none" stroke="#000000" cx="27" cy="-192" rx="27" ry="18"/>
<text text-anchor="middle" x="27" y="-188.3" font-family="Times,serif" font-size="14.00" fill="#000000">q2</text>
</g>
<!-- q0&#45;&gt;q2 -->
<g id="edge3" class="edge">
<title>q0&#45;&gt;q2</title>
<path fill="none" stroke="#000000" d="M51.5207,-269.8734C43.7903,-262.665 35.558,-253.3083 31,-243 27.8888,-235.9637 26.4251,-227.8497 25.8502,-220.1931"/>
<polygon fill="#000000" stroke="#000000" points="29.3481,-220.0689 25.5459,-210.1799 22.3514,-220.2816 29.3481,-220.0689"/>
<text text-anchor="middle" x="34.5" y="-231.8" font-family="Times,serif" font-size="14.00" fill="#000000">0</text>
</g>
<!-- q1 -->
<g id="node5" class="node">
<title>q1</title>
<ellipse fill="none" stroke="#000000" cx="70" cy="-18" rx="27" ry="18"/>
<text text-anchor="middle" x="70" y="-14.3" font-family="Times,serif" font-size="14.00" fill="#000000">q1</text>
</g>
<!-- q0&#45;&gt;q1 -->
<g id="edge8" class="edge">
<title>q0&#45;&gt;q1</title>
<path fill="none" stroke="#000000" d="M70,-260.8483C70,-211.7476 70,-98.9428 70,-46.1771"/>
<polygon fill="#000000" stroke="#000000" points="73.5001,-46.1668 70,-36.1668 66.5001,-46.1668 73.5001,-46.1668"/>
<text text-anchor="middle" x="73.5" y="-144.8" font-family="Times,serif" font-size="14.00" fill="#000000">1</text>
</g>
<!-- q3 -->
<g id="node3" class="node">
<title>q3</title>
<ellipse fill="none" stroke="#000000" cx="27" cy="-105" rx="27" ry="18"/>
<text text-anchor="middle" x="27" y="-101.3" font-family="Times,serif" font-size="14.00" fill="#000000">q3</text>
</g>
<!-- q3&#45;&gt;q2 -->
<g id="edge6" class="edge">
<title>q3&#45;&gt;q2</title>
<path fill="none" stroke="#000000" d="M27,-123.0034C27,-134.7801 27,-150.4102 27,-163.8156"/>
<polygon fill="#000000" stroke="#000000" points="23.5001,-163.9735 27,-173.9735 30.5001,-163.9736 23.5001,-163.9735"/>
<text text-anchor="middle" x="30.5" y="-144.8" font-family="Times,serif" font-size="14.00" fill="#000000">1</text>
</g>
<!-- q3&#45;&gt;q1 -->
<g id="edge4" class="edge">
<title>q3&#45;&gt;q1</title>
<path fill="none" stroke="#000000" d="M25.2671,-86.6909C25.0688,-76.5795 26.1141,-64.0676 31,-54 33.9042,-48.0158 38.2716,-42.5439 43.046,-37.7714"/>
<polygon fill="#000000" stroke="#000000" points="45.627,-40.1579 50.732,-30.874 40.9518,-34.948 45.627,-40.1579"/>
<text text-anchor="middle" x="34.5" y="-57.8" font-family="Times,serif" font-size="14.00" fill="#000000">0</text>
</g>
<!-- q2&#45;&gt;q0 -->
<g id="edge5" class="edge">
<title>q2&#45;&gt;q0</title>
<path fill="none" stroke="#000000" d="M35.0501,-209.3168C40.8503,-221.7938 48.8331,-238.9657 55.7053,-253.7486"/>
<polygon fill="#000000" stroke="#000000" points="52.6375,-255.4522 60.0269,-263.0448 58.9851,-252.5013 52.6375,-255.4522"/>
<text text-anchor="middle" x="52.5" y="-231.8" font-family="Times,serif" font-size="14.00" fill="#000000">0</text>
</g>
<!-- q2&#45;&gt;q3 -->
<g id="edge7" class="edge">
<title>q2&#45;&gt;q3</title>
<path fill="none" stroke="#000000" d="M19.9188,-174.1652C16.8697,-164.4211 14.3407,-152.1084 16,-141 16.4112,-138.2469 16.9901,-135.4134 17.6695,-132.6024"/>
<polygon fill="#000000" stroke="#000000" points="21.1151,-133.278 20.4504,-122.7041 14.376,-131.3847 21.1151,-133.278"/>
<text text-anchor="middle" x="19.5" y="-144.8" font-family="Times,serif" font-size="14.00" fill="#000000">1</text>
</g>
<!-- q1&#45;&gt;q0 -->
<g id="edge2" class="edge">
<title>q1&#45;&gt;q0</title>
<path fill="none" stroke="#000000" d="M84.2798,-33.2859C88.9615,-39.2827 93.5806,-46.5177 96,-54 121.8442,-133.9254 119.2018,-162.2679 96,-243 94.6336,-247.7545 92.5451,-252.4916 90.1334,-256.9736"/>
<polygon fill="#000000" stroke="#000000" points="87.0157,-255.3664 84.8568,-265.7389 93.0129,-258.9766 87.0157,-255.3664"/>
<text text-anchor="middle" x="117.5" y="-144.8" font-family="Times,serif" font-size="14.00" fill="#000000">1</text>
</g>
<!-- q1&#45;&gt;q3 -->
<g id="edge9" class="edge">
<title>q1&#45;&gt;q3</title>
<path fill="none" stroke="#000000" d="M61.5222,-35.1527C55.4015,-47.5364 47.0218,-64.4908 40.0511,-78.5943"/>
<polygon fill="#000000" stroke="#000000" points="36.7887,-77.296 35.4954,-87.8116 43.064,-80.3976 36.7887,-77.296"/>
<text text-anchor="middle" x="54.5" y="-57.8" font-family="Times,serif" font-size="14.00" fill="#000000">0</text>
</g>
</g>
</svg>
