<?xml version="1.0" encoding="UTF-8" standalone="no"?>
<!DOCTYPE svg PUBLIC "-//W3C//DTD SVG 1.1//EN"
 "http://www.w3.org/Graphics/SVG/1.1/DTD/svg11.dtd">
<!-- Generated by graphviz version 2.40.1 (20161225.0304)
 -->
<!-- Title: %3 Pages: 1 -->
<svg width="96pt" height="299pt"
 viewBox="0.00 0.00 95.86 299.00" xmlns="http://www.w3.org/2000/svg" xmlns:xlink="http://www.w3.org/1999/xlink">
<g id="graph0" class="graph" transform="scale(1 1) rotate(0) translate(4 295)">
<title>%3</title>
<polygon fill="#ffffff" stroke="transparent" points="-4,4 -4,-295 91.8582,-295 91.8582,4 -4,4"/>
<!-- fake -->
<g id="node1" class="node">
<title>fake</title>
</g>
<!-- 0 -->
<g id="node2" class="node">
<title>0</title>
<ellipse fill="none" stroke="#000000" cx="32.8582" cy="-200" rx="27" ry="18"/>
<text text-anchor="middle" x="32.8582" y="-196.3" font-family="Times,serif" font-size="14.00" fill="#000000">0</text>
</g>
<!-- fake&#45;&gt;0 -->
<g id="edge1" class="edge">
<title>fake&#45;&gt;0</title>
<path fill="none" stroke="#000000" stroke-width="2" d="M32.8582,-254.9551C32.8582,-246.8828 32.8582,-237.1764 32.8582,-228.1817"/>
<polygon fill="#000000" stroke="#000000" stroke-width="2" points="36.3583,-228.0903 32.8582,-218.0904 29.3583,-228.0904 36.3583,-228.0903"/>
</g>
<!-- 0&#45;&gt;0 -->
<g id="edge2" class="edge">
<title>0&#45;&gt;0</title>
<path fill="none" stroke="#000000" d="M58.3017,-206.6907C68.886,-207.1521 77.8582,-204.9219 77.8582,-200 77.8582,-196.77 73.9942,-194.6992 68.3463,-193.7876"/>
<polygon fill="#000000" stroke="#000000" points="68.4569,-190.289 58.3017,-193.3093 68.1239,-197.2811 68.4569,-190.289"/>
<text text-anchor="middle" x="82.8582" y="-196.3" font-family="Times,serif" font-size="14.00" fill="#000000">b</text>
</g>
<!-- 1 -->
<g id="node3" class="node">
<title>1</title>
<ellipse fill="none" stroke="#000000" cx="32.8582" cy="-113" rx="27" ry="18"/>
<text text-anchor="middle" x="32.8582" y="-109.3" font-family="Times,serif" font-size="14.00" fill="#000000">1</text>
</g>
<!-- 0&#45;&gt;1 -->
<g id="edge3" class="edge">
<title>0&#45;&gt;1</title>
<path fill="none" stroke="#000000" d="M16.2071,-185.5018C10.5194,-179.4908 4.8434,-172.0416 1.8582,-164 -1.8582,-153.9887 2.4421,-143.7723 8.9067,-135.1386"/>
<polygon fill="#000000" stroke="#000000" points="11.6964,-137.2629 15.5767,-127.4042 6.3954,-132.6913 11.6964,-137.2629"/>
<text text-anchor="middle" x="6.3582" y="-152.8" font-family="Times,serif" font-size="14.00" fill="#000000">a</text>
</g>
<!-- 1&#45;&gt;0 -->
<g id="edge5" class="edge">
<title>1&#45;&gt;0</title>
<path fill="none" stroke="#000000" d="M32.8582,-131.0034C32.8582,-142.7801 32.8582,-158.4102 32.8582,-171.8156"/>
<polygon fill="#000000" stroke="#000000" points="29.3583,-171.9735 32.8582,-181.9735 36.3583,-171.9736 29.3583,-171.9735"/>
<text text-anchor="middle" x="37.8582" y="-152.8" font-family="Times,serif" font-size="14.00" fill="#000000">b</text>
</g>
<!-- 1&#45;&gt;0 -->
<g id="edge6" class="edge">
<title>1&#45;&gt;0</title>
<path fill="none" stroke="#000000" d="M39.4078,-130.7041C41.2265,-136.4566 42.9507,-142.9243 43.8582,-149 44.9989,-156.637 44.1601,-164.8433 42.5336,-172.3927"/>
<polygon fill="#000000" stroke="#000000" points="39.1224,-171.6019 39.9394,-182.1652 45.888,-173.398 39.1224,-171.6019"/>
<text text-anchor="middle" x="48.3582" y="-152.8" font-family="Times,serif" font-size="14.00" fill="#000000">a</text>
</g>
<!-- 2 -->
<g id="node4" class="node">
<title>2</title>
<ellipse fill="none" stroke="#000000" cx="32.8582" cy="-22" rx="18" ry="18"/>
<ellipse fill="none" stroke="#000000" cx="32.8582" cy="-22" rx="22" ry="22"/>
<text text-anchor="middle" x="32.8582" y="-18.3" font-family="Times,serif" font-size="14.00" fill="#000000">2</text>
</g>
<!-- 1&#45;&gt;2 -->
<g id="edge4" class="edge">
<title>1&#45;&gt;2</title>
<path fill="none" stroke="#000000" d="M32.8582,-94.5848C32.8582,-83.1105 32.8582,-68.0231 32.8582,-54.5774"/>
<polygon fill="#000000" stroke="#000000" points="36.3583,-54.2465 32.8582,-44.2465 29.3583,-54.2466 36.3583,-54.2465"/>
<text text-anchor="middle" x="37.3582" y="-65.8" font-family="Times,serif" font-size="14.00" fill="#000000">c</text>
</g>
<!-- 2&#45;&gt;2 -->
<g id="edge7" class="edge">
<title>2&#45;&gt;2</title>
<path fill="none" stroke="#000000" d="M53.439,-30.3702C63.7029,-31.5284 72.8582,-28.7383 72.8582,-22 72.8582,-17.6833 69.1009,-14.9869 63.7018,-13.9109"/>
<polygon fill="#000000" stroke="#000000" points="63.5311,-10.405 53.439,-13.6298 63.3394,-17.4024 63.5311,-10.405"/>
<text text-anchor="middle" x="77.3582" y="-18.3" font-family="Times,serif" font-size="14.00" fill="#000000">c</text>
</g>
</g>
</svg>
