<?xml version="1.0" encoding="UTF-8" standalone="no"?>
<!DOCTYPE svg PUBLIC "-//W3C//DTD SVG 1.1//EN"
 "http://www.w3.org/Graphics/SVG/1.1/DTD/svg11.dtd">
<!-- Generated by graphviz version 2.38.0 (20140413.2041)
 -->
<!-- Title: %3 Pages: 1 -->
<svg width="87pt" height="299pt"
 viewBox="0.00 0.00 87.00 299.00" xmlns="http://www.w3.org/2000/svg" xmlns:xlink="http://www.w3.org/1999/xlink">
<g id="graph0" class="graph" transform="scale(1 1) rotate(0) translate(4 295)">
<title>%3</title>
<polygon fill="white" stroke="none" points="-4,4 -4,-295 83,-295 83,4 -4,4"/>
<!-- fake -->
<g id="node1" class="node"><title>fake</title>
</g>
<!-- 3 -->
<g id="node4" class="node"><title>3</title>
<ellipse fill="none" stroke="black" cx="27" cy="-200" rx="27" ry="18"/>
<text text-anchor="middle" x="27" y="-196.3" font-family="Times,serif" font-size="14.00">3</text>
</g>
<!-- fake&#45;&gt;3 -->
<g id="edge1" class="edge"><title>fake&#45;&gt;3</title>
<path fill="none" stroke="black" stroke-width="2" d="M27,-254.813C27,-246.789 27,-237.047 27,-228.069"/>
<polygon fill="black" stroke="black" stroke-width="2" points="30.5001,-228.029 27,-218.029 23.5001,-228.029 30.5001,-228.029"/>
</g>
<!-- 1 -->
<g id="node2" class="node"><title>1</title>
<ellipse fill="none" stroke="black" cx="27" cy="-22" rx="18" ry="18"/>
<ellipse fill="none" stroke="black" cx="27" cy="-22" rx="22" ry="22"/>
<text text-anchor="middle" x="27" y="-18.3" font-family="Times,serif" font-size="14.00">1</text>
</g>
<!-- 1&#45;&gt;1 -->
<g id="edge2" class="edge"><title>1&#45;&gt;1</title>
<path fill="none" stroke="black" d="M47.5808,-30.3702C57.8447,-31.5284 67,-28.7383 67,-22 67,-17.6833 63.2427,-14.9869 57.8436,-13.9109"/>
<polygon fill="black" stroke="black" points="57.6729,-10.405 47.5808,-13.6298 57.4812,-17.4024 57.6729,-10.405"/>
<text text-anchor="middle" x="70.5" y="-18.3" font-family="Times,serif" font-size="14.00">c</text>
</g>
<!-- 2 -->
<g id="node3" class="node"><title>2</title>
<ellipse fill="none" stroke="black" cx="27" cy="-113" rx="27" ry="18"/>
<text text-anchor="middle" x="27" y="-109.3" font-family="Times,serif" font-size="14.00">2</text>
</g>
<!-- 2&#45;&gt;1 -->
<g id="edge4" class="edge"><title>2&#45;&gt;1</title>
<path fill="none" stroke="black" d="M27,-94.8399C27,-83.4407 27,-68.1336 27,-54.5781"/>
<polygon fill="black" stroke="black" points="30.5001,-54.1905 27,-44.1905 23.5001,-54.1906 30.5001,-54.1905"/>
<text text-anchor="middle" x="30.5" y="-65.8" font-family="Times,serif" font-size="14.00">c</text>
</g>
<!-- 2&#45;&gt;3 -->
<g id="edge3" class="edge"><title>2&#45;&gt;3</title>
<path fill="none" stroke="black" d="M27,-131.175C27,-142.806 27,-158.419 27,-171.734"/>
<polygon fill="black" stroke="black" points="23.5001,-171.799 27,-181.799 30.5001,-171.799 23.5001,-171.799"/>
<text text-anchor="middle" x="30.5" y="-152.8" font-family="Times,serif" font-size="14.00">b</text>
</g>
<!-- 2&#45;&gt;3 -->
<g id="edge5" class="edge"><title>2&#45;&gt;3</title>
<path fill="none" stroke="black" d="M32.0545,-131.071C34.3233,-140.709 36.2419,-152.993 35,-164 34.696,-166.694 34.2643,-169.484 33.7571,-172.258"/>
<polygon fill="black" stroke="black" points="30.3329,-171.534 31.6825,-182.042 37.1807,-172.986 30.3329,-171.534"/>
<text text-anchor="middle" x="38.5" y="-152.8" font-family="Times,serif" font-size="14.00">a</text>
</g>
<!-- 3&#45;&gt;2 -->
<g id="edge7" class="edge"><title>3&#45;&gt;2</title>
<path fill="none" stroke="black" d="M20.2059,-182.434C17.0245,-172.745 14.2745,-160.245 16,-149 16.4202,-146.261 17.0152,-143.443 17.7135,-140.651"/>
<polygon fill="black" stroke="black" points="21.134,-141.423 20.5673,-130.843 14.4127,-139.467 21.134,-141.423"/>
<text text-anchor="middle" x="19.5" y="-152.8" font-family="Times,serif" font-size="14.00">a</text>
</g>
<!-- 3&#45;&gt;3 -->
<g id="edge6" class="edge"><title>3&#45;&gt;3</title>
<path fill="none" stroke="black" d="M52.4435,-206.691C63.0278,-207.152 72,-204.922 72,-200 72,-196.77 68.136,-194.699 62.4881,-193.788"/>
<polygon fill="black" stroke="black" points="62.5987,-190.289 52.4435,-193.309 62.2656,-197.281 62.5987,-190.289"/>
<text text-anchor="middle" x="75.5" y="-196.3" font-family="Times,serif" font-size="14.00">b</text>
</g>
</g>
</svg>
