<?xml version="1.0" encoding="UTF-8" standalone="no"?>
<!DOCTYPE svg PUBLIC "-//W3C//DTD SVG 1.1//EN"
 "http://www.w3.org/Graphics/SVG/1.1/DTD/svg11.dtd">
<!-- Generated by graphviz version 2.38.0 (20140413.2041)
 -->
<!-- Title: %3 Pages: 1 -->
<svg width="89pt" height="299pt"
 viewBox="0.00 0.00 88.61 299.00" xmlns="http://www.w3.org/2000/svg" xmlns:xlink="http://www.w3.org/1999/xlink">
<g id="graph0" class="graph" transform="scale(1 1) rotate(0) translate(4 295)">
<title>%3</title>
<polygon fill="white" stroke="none" points="-4,4 -4,-295 84.6065,-295 84.6065,4 -4,4"/>
<!-- fake -->
<g id="node1" class="node"><title>fake</title>
</g>
<!-- 0 -->
<g id="node2" class="node"><title>0</title>
<ellipse fill="none" stroke="black" cx="28.6065" cy="-200" rx="27" ry="18"/>
<text text-anchor="middle" x="28.6065" y="-196.3" font-family="Times,serif" font-size="14.00">0</text>
</g>
<!-- fake&#45;&gt;0 -->
<g id="edge1" class="edge"><title>fake&#45;&gt;0</title>
<path fill="none" stroke="black" stroke-width="2" d="M28.6065,-254.813C28.6065,-246.789 28.6065,-237.047 28.6065,-228.069"/>
<polygon fill="black" stroke="black" stroke-width="2" points="32.1066,-228.029 28.6065,-218.029 25.1066,-228.029 32.1066,-228.029"/>
</g>
<!-- 0&#45;&gt;0 -->
<g id="edge3" class="edge"><title>0&#45;&gt;0</title>
<path fill="none" stroke="black" d="M54.05,-206.691C64.6343,-207.152 73.6065,-204.922 73.6065,-200 73.6065,-196.77 69.7425,-194.699 64.0946,-193.788"/>
<polygon fill="black" stroke="black" points="64.2052,-190.289 54.05,-193.309 63.8721,-197.281 64.2052,-190.289"/>
<text text-anchor="middle" x="77.1065" y="-196.3" font-family="Times,serif" font-size="14.00">b</text>
</g>
<!-- 1 -->
<g id="node3" class="node"><title>1</title>
<ellipse fill="none" stroke="black" cx="28.6065" cy="-113" rx="27" ry="18"/>
<text text-anchor="middle" x="28.6065" y="-109.3" font-family="Times,serif" font-size="14.00">1</text>
</g>
<!-- 0&#45;&gt;1 -->
<g id="edge2" class="edge"><title>0&#45;&gt;1</title>
<path fill="none" stroke="black" d="M14.0777,-184.625C9.12064,-178.747 4.18173,-171.554 1.60649,-164 -1.60649,-154.575 1.91169,-144.809 7.3525,-136.436"/>
<polygon fill="black" stroke="black" points="10.2747,-138.375 13.5168,-128.288 4.69226,-134.151 10.2747,-138.375"/>
<text text-anchor="middle" x="5.10649" y="-152.8" font-family="Times,serif" font-size="14.00">a</text>
</g>
<!-- 1&#45;&gt;0 -->
<g id="edge5" class="edge"><title>1&#45;&gt;0</title>
<path fill="none" stroke="black" d="M28.6065,-131.175C28.6065,-142.806 28.6065,-158.419 28.6065,-171.734"/>
<polygon fill="black" stroke="black" points="25.1066,-171.799 28.6065,-181.799 32.1066,-171.799 25.1066,-171.799"/>
<text text-anchor="middle" x="32.1065" y="-152.8" font-family="Times,serif" font-size="14.00">a</text>
</g>
<!-- 1&#45;&gt;0 -->
<g id="edge6" class="edge"><title>1&#45;&gt;0</title>
<path fill="none" stroke="black" d="M33.661,-131.071C35.9298,-140.709 37.8484,-152.993 36.6065,-164 36.3025,-166.694 35.8708,-169.484 35.3636,-172.258"/>
<polygon fill="black" stroke="black" points="31.9394,-171.534 33.289,-182.042 38.7872,-172.986 31.9394,-171.534"/>
<text text-anchor="middle" x="40.1065" y="-152.8" font-family="Times,serif" font-size="14.00">b</text>
</g>
<!-- 2 -->
<g id="node4" class="node"><title>2</title>
<ellipse fill="none" stroke="black" cx="28.6065" cy="-22" rx="18" ry="18"/>
<ellipse fill="none" stroke="black" cx="28.6065" cy="-22" rx="22" ry="22"/>
<text text-anchor="middle" x="28.6065" y="-18.3" font-family="Times,serif" font-size="14.00">2</text>
</g>
<!-- 1&#45;&gt;2 -->
<g id="edge4" class="edge"><title>1&#45;&gt;2</title>
<path fill="none" stroke="black" d="M28.6065,-94.8399C28.6065,-83.4407 28.6065,-68.1336 28.6065,-54.5781"/>
<polygon fill="black" stroke="black" points="32.1066,-54.1905 28.6065,-44.1905 25.1066,-54.1906 32.1066,-54.1905"/>
<text text-anchor="middle" x="32.1065" y="-65.8" font-family="Times,serif" font-size="14.00">c</text>
</g>
<!-- 2&#45;&gt;2 -->
<g id="edge7" class="edge"><title>2&#45;&gt;2</title>
<path fill="none" stroke="black" d="M49.1873,-30.3702C59.4512,-31.5284 68.6065,-28.7383 68.6065,-22 68.6065,-17.6833 64.8492,-14.9869 59.4501,-13.9109"/>
<polygon fill="black" stroke="black" points="59.2794,-10.405 49.1873,-13.6298 59.0877,-17.4024 59.2794,-10.405"/>
<text text-anchor="middle" x="72.1065" y="-18.3" font-family="Times,serif" font-size="14.00">c</text>
</g>
</g>
</svg>
